<?xml version="1.0" encoding="UTF-8"?> <svg xmlns="http://www.w3.org/2000/svg" id="Laag_1" data-name="Laag 1" viewBox="0 0 339.69 61.38"><defs><style>.cls-1{fill:#321e41;}</style></defs><title>FrontrowDeeppurple</title><path class="cls-1" d="M28.88,16.48H18.32V14.11c0-3.79,1-4.42,3.79-4.42l5.67.06a1.6,1.6,0,0,0,1.6-1.42L30,3.26a1.59,1.59,0,0,0-1.36-1.77,91.25,91.25,0,0,0-11-1C8.28.53,6.47,6.13,6.47,13.16v2.92H1.75a1.6,1.6,0,0,0-1.6,1.6v6.59a1.6,1.6,0,0,0,1.6,1.6H6.47v34a1.6,1.6,0,0,0,1.6,1.6h8.64a1.6,1.6,0,0,0,1.6-1.6v-34H28.88a1.6,1.6,0,0,0,1.6-1.6V18.09A1.6,1.6,0,0,0,28.88,16.48Z" transform="translate(-0.15 -0.53)"></path><path class="cls-1" d="M95,15.45H83.51c-10.27,0-15.4,3.87-15.4,15V46.9c0,11.14,5.14,15,15.4,15H95c10.27,0,15.4-3.87,15.4-15V30.46C110.37,19.33,105.24,15.45,95,15.45ZM98.6,47c0,4-1.66,5.29-5.53,5.29H85.41C81.61,52.27,80,50.93,80,47V30.15c0-3.87,1.66-5.3,5.45-5.3h7.66c3.87,0,5.53,1.42,5.53,5.3Z" transform="translate(-0.15 -0.53)"></path><path class="cls-1" d="M183.55,52.11c-2.76,0-3.79-1.18-3.79-4.11V25.88h10.56a1.6,1.6,0,0,0,1.6-1.6V17.69a1.6,1.6,0,0,0-1.6-1.6H179.75V7.82a1.6,1.6,0,0,0-1.6-1.6h-8.64a1.6,1.6,0,0,0-1.6,1.6V16h-4.72a1.6,1.6,0,0,0-1.6,1.6v6.67a1.6,1.6,0,0,0,1.6,1.6h4.72V49.27c0,7,1.82,12.56,11.14,12.56a79,79,0,0,0,12-1.41,1.59,1.59,0,0,0,1.3-1.54l.1-5.25A1.6,1.6,0,0,0,190.82,52Z" transform="translate(-0.15 -0.53)"></path><path class="cls-1" d="M272.36,30.46V46.9c0,11.14-5.14,15-15.4,15H245.5c-10.27,0-15.4-3.87-15.4-15V30.46c0-11.14,5.14-15,15.4-15H257C267.23,15.45,272.36,19.33,272.36,30.46ZM260.59,47V30.15c0-3.87-1.66-5.3-5.53-5.3H247.4c-3.79,0-5.45,1.42-5.45,5.3V47c0,3.95,1.66,5.29,5.45,5.29h7.66C258.93,52.27,260.59,50.93,260.59,47Z" transform="translate(-0.15 -0.53)"></path><path class="cls-1" d="M301.42,61.67H286.33a1.61,1.61,0,0,1-1.82-1.42c-.62-3.36-7.19-34.17-8.91-42.24a1.59,1.59,0,0,1,1.57-1.93h9.63a1.6,1.6,0,0,1,1.58,1.33l5.85,33.2h.63l5.54-33.18A1.6,1.6,0,0,1,302,16.09h11.35a1.6,1.6,0,0,1,1.58,1.34l5.54,33.18h.71l5.77-33.19a1.6,1.6,0,0,1,1.58-1.33h9.7A1.6,1.6,0,0,1,339.8,18c-1.74,8.07-8.37,38.87-9,42.23a1.54,1.54,0,0,1-1.74,1.42H313.9a1.77,1.77,0,0,1-1.82-1.42l-4.35-27h-.24s-3.95,25.52-4.27,27A1.67,1.67,0,0,1,301.42,61.67Z" transform="translate(-0.15 -0.53)"></path><path class="cls-1" d="M47.15,17.69a1.6,1.6,0,0,0-1.6-1.6H36.91a1.6,1.6,0,0,0-1.6,1.6V59.91a1.6,1.6,0,0,0,1.6,1.6h8.64a1.6,1.6,0,0,0,1.6-1.6V28.73a27.16,27.16,0,0,1,10-2.53h5.35a1.6,1.6,0,0,0,1.6-1.6V17.3a1.6,1.6,0,0,0-1.6-1.6H59.08c-3.87,0-8.45,2.29-11.93,4.26Z" transform="translate(-0.15 -0.53)"></path><path class="cls-1" d="M209.14,17.69a1.6,1.6,0,0,0-1.6-1.6H198.9a1.6,1.6,0,0,0-1.6,1.6V59.91a1.6,1.6,0,0,0,1.6,1.6h8.64a1.6,1.6,0,0,0,1.6-1.6V28.73a27.16,27.16,0,0,1,10-2.53h5.35a1.6,1.6,0,0,0,1.6-1.6V17.3a1.6,1.6,0,0,0-1.6-1.6h-3.45c-3.87,0-8.45,2.29-11.93,4.26Z" transform="translate(-0.15 -0.53)"></path><path class="cls-1" d="M142.33,15.62h-2.21c-3.87,0-8.45,2-11.93,3.71V17.69a1.6,1.6,0,0,0-1.6-1.6h-8.64a1.6,1.6,0,0,0-1.6,1.6V59.91a1.6,1.6,0,0,0,1.6,1.6h8.64a1.6,1.6,0,0,0,1.6-1.6V27.62c3.56-.87,7-2.29,10-2.29H140a5.45,5.45,0,0,1,5.45,5.45V59.91a1.6,1.6,0,0,0,1.6,1.6h8.64a1.6,1.6,0,0,0,1.6-1.6V29.12C157.34,18.14,152.29,15.62,142.33,15.62Z" transform="translate(-0.15 -0.53)"></path></svg> 